<svg id="Calque_1" data-name="Calque 1" xmlns="http://www.w3.org/2000/svg" xmlns:xlink="http://www.w3.org/1999/xlink" viewBox="0 0 50.9 50.89"><defs><style>.cls-1{fill:none;}.cls-2{clip-path:url(#clip-path);}.cls-3{fill:#fb5655;stroke:#000;stroke-width:0.25px;}.cls-4{isolation:isolate;font-size:24px;fill:#fff;font-family:Arial-BoldMT, Arial;font-weight:700;}</style><clipPath id="clip-path" transform="translate(0.15 0.15)"><rect class="cls-1" width="50.6" height="50.6"/></clipPath></defs><title>certificate%-red</title><g class="cls-2"><path class="cls-3" d="M49.88,29.75,45.33,25.3l4.55-4.45a2.35,2.35,0,0,0-1.05-4l-6.2-1.58,1.75-6.13a2.14,2.14,0,0,0-.63-2.31,2.11,2.11,0,0,0-2.31-.62L35.32,8l-1.58-6.2A2.15,2.15,0,0,0,32.06.09a2.21,2.21,0,0,0-2.31.63L25.3,5.3,20.85.72a2.13,2.13,0,0,0-2.3-.63,2.14,2.14,0,0,0-1.69,1.68L15.28,8,9.15,6.22a2.1,2.1,0,0,0-2.3.62,2.14,2.14,0,0,0-.63,2.31L8,15.28l-6.2,1.58A2.26,2.26,0,0,0,.06,18.54a2.24,2.24,0,0,0,.66,2.31L5.26,25.3.72,29.75a2.22,2.22,0,0,0-.66,2.3,2.26,2.26,0,0,0,1.71,1.68L8,35.31,6.22,41.44a2.14,2.14,0,0,0,.63,2.31,2.12,2.12,0,0,0,2.3.63l6.13-1.75,1.58,6.2a2.2,2.2,0,0,0,1.69,1.71,2.22,2.22,0,0,0,2.3-.66l4.45-4.55,4.45,4.55a2.18,2.18,0,0,0,1.68.72,4.6,4.6,0,0,0,.63-.06,2.27,2.27,0,0,0,1.68-1.71l1.58-6.2,6.13,1.75a2.41,2.41,0,0,0,2.93-2.94l-1.75-6.13,6.2-1.58a2.26,2.26,0,0,0,1.71-1.68A2.22,2.22,0,0,0,49.88,29.75Z" transform="translate(0.15 0.15)"/><text class="cls-4" transform="translate(13.95 34.76)">%</text></g></svg>